# xmcd CD database file
#
# Track frame offsets:
#	182
#	12500
#	26067
#	39420
#	51485
#	65587
#	80107
#	94430
#	107260
#	119700
#	134027
#	147432
#
# Disc length: 2143 seconds
#
# Revision: 0
# Processed by: cddbd v1.5.1PL0 Copyright (c) Steve Scherf et al.
# Submitted via: CDex 1.51
#
DISCID=b9085d0c
DTITLE=Louis Amstrong - Y su orquesta
DYEAR=1991
DGENRE=Blues
TTITLE0=When all the saints go marching in
TTITLE1=The flat foot loogie
TTITLE2=ain´t misbehavin
TTITLE3=Jeepers creepers
TTITLE4=What is this thing called swing?
TTITLE5=Savoy blues
TTITLE6=West end blues
TTITLE7=Swing that music
TTITLE8=Dippermouth blues
TTITLE9=I´ve got the heart full of rithm
TTITLE10=On the sunny side of the street
TTITLE11=struttin with some barbecue
EXTD=YEAR: 1991
EXTT0=
EXTT1=
EXTT2=
EXTT3=
EXTT4=
EXTT5=
EXTT6=
EXTT7=
EXTT8=
EXTT9=
EXTT10=
EXTT11=
PLAYORDER=
